<mxfile host="app.diagrams.net" modified="2023-11-25T08:20:35.176Z" agent="Mozilla/5.0 (Macintosh; Intel Mac OS X 10_15_7) AppleWebKit/537.36 (KHTML, like Gecko) Chrome/119.0.0.0 Safari/537.36" etag="rx03cupb3s1Zc_jFHmpy" version="22.1.4" type="device">
  <diagram name="Страница — 1" id="mVmSSyupenCMlBVW6Awq">
    <mxGraphModel dx="1122" dy="584" grid="1" gridSize="10" guides="1" tooltips="1" connect="1" arrows="1" fold="1" page="1" pageScale="1" pageWidth="827" pageHeight="1169" math="0" shadow="0">
      <root>
        <mxCell id="0" />
        <mxCell id="1" parent="0" />
        <mxCell id="xnBmyIyOvbBcUiD-5H-M-37" value="" style="rounded=1;whiteSpace=wrap;html=1;arcSize=6;" vertex="1" parent="1">
          <mxGeometry x="200" y="70" width="540" height="500" as="geometry" />
        </mxCell>
        <mxCell id="xnBmyIyOvbBcUiD-5H-M-7" value="" style="edgeStyle=orthogonalEdgeStyle;rounded=0;orthogonalLoop=1;jettySize=auto;html=1;" edge="1" parent="1" source="xnBmyIyOvbBcUiD-5H-M-2" target="xnBmyIyOvbBcUiD-5H-M-6">
          <mxGeometry relative="1" as="geometry" />
        </mxCell>
        <mxCell id="xnBmyIyOvbBcUiD-5H-M-5" value="" style="group" vertex="1" connectable="0" parent="1">
          <mxGeometry x="80" y="140" width="80" height="110" as="geometry" />
        </mxCell>
        <mxCell id="xnBmyIyOvbBcUiD-5H-M-4" value="Agent app" style="rounded=0;whiteSpace=wrap;html=1;strokeColor=none;" vertex="1" parent="xnBmyIyOvbBcUiD-5H-M-5">
          <mxGeometry x="5" y="80" width="70" height="30" as="geometry" />
        </mxCell>
        <mxCell id="xnBmyIyOvbBcUiD-5H-M-3" value="" style="group" vertex="1" connectable="0" parent="xnBmyIyOvbBcUiD-5H-M-5">
          <mxGeometry width="80" height="80" as="geometry" />
        </mxCell>
        <mxCell id="xnBmyIyOvbBcUiD-5H-M-1" value="" style="ellipse;whiteSpace=wrap;html=1;aspect=fixed;" vertex="1" parent="xnBmyIyOvbBcUiD-5H-M-3">
          <mxGeometry width="80" height="80" as="geometry" />
        </mxCell>
        <mxCell id="xnBmyIyOvbBcUiD-5H-M-2" value="" style="image;points=[];aspect=fixed;html=1;align=center;shadow=0;dashed=0;image=img/lib/allied_telesis/computer_and_terminals/Personal_Computer.svg;" vertex="1" parent="xnBmyIyOvbBcUiD-5H-M-3">
          <mxGeometry x="20" y="10" width="45.6" height="61.800000000000004" as="geometry" />
        </mxCell>
        <mxCell id="xnBmyIyOvbBcUiD-5H-M-15" value="" style="edgeStyle=orthogonalEdgeStyle;rounded=0;orthogonalLoop=1;jettySize=auto;html=1;" edge="1" parent="1" source="xnBmyIyOvbBcUiD-5H-M-6" target="xnBmyIyOvbBcUiD-5H-M-13">
          <mxGeometry relative="1" as="geometry">
            <Array as="points">
              <mxPoint x="340" y="181" />
              <mxPoint x="340" y="130" />
            </Array>
          </mxGeometry>
        </mxCell>
        <mxCell id="xnBmyIyOvbBcUiD-5H-M-19" style="edgeStyle=orthogonalEdgeStyle;rounded=0;orthogonalLoop=1;jettySize=auto;html=1;entryX=0;entryY=0.5;entryDx=0;entryDy=0;" edge="1" parent="1" source="xnBmyIyOvbBcUiD-5H-M-6" target="xnBmyIyOvbBcUiD-5H-M-18">
          <mxGeometry relative="1" as="geometry">
            <Array as="points">
              <mxPoint x="340" y="181" />
              <mxPoint x="340" y="230" />
            </Array>
          </mxGeometry>
        </mxCell>
        <mxCell id="xnBmyIyOvbBcUiD-5H-M-22" style="edgeStyle=orthogonalEdgeStyle;rounded=0;orthogonalLoop=1;jettySize=auto;html=1;entryX=0;entryY=0.5;entryDx=0;entryDy=0;" edge="1" parent="1" source="xnBmyIyOvbBcUiD-5H-M-6" target="xnBmyIyOvbBcUiD-5H-M-21">
          <mxGeometry relative="1" as="geometry">
            <Array as="points">
              <mxPoint x="340" y="181" />
              <mxPoint x="340" y="330" />
            </Array>
          </mxGeometry>
        </mxCell>
        <mxCell id="xnBmyIyOvbBcUiD-5H-M-6" value="&lt;br&gt;API &lt;br&gt;Gateway" style="ellipse;whiteSpace=wrap;html=1;verticalAlign=top;labelBackgroundColor=default;shadow=0;dashed=0;" vertex="1" parent="1">
          <mxGeometry x="220" y="140.9" width="80" height="80" as="geometry" />
        </mxCell>
        <mxCell id="xnBmyIyOvbBcUiD-5H-M-17" style="edgeStyle=orthogonalEdgeStyle;rounded=0;orthogonalLoop=1;jettySize=auto;html=1;entryX=0;entryY=0.5;entryDx=0;entryDy=0;" edge="1" parent="1" source="xnBmyIyOvbBcUiD-5H-M-13" target="xnBmyIyOvbBcUiD-5H-M-16">
          <mxGeometry relative="1" as="geometry" />
        </mxCell>
        <mxCell id="xnBmyIyOvbBcUiD-5H-M-13" value="Authority&lt;br&gt;Service" style="shape=hexagon;perimeter=hexagonPerimeter2;whiteSpace=wrap;html=1;fixedSize=1;size=20;rotation=0;" vertex="1" parent="1">
          <mxGeometry x="383.5" y="90" width="90" height="80" as="geometry" />
        </mxCell>
        <mxCell id="xnBmyIyOvbBcUiD-5H-M-26" style="edgeStyle=orthogonalEdgeStyle;rounded=0;orthogonalLoop=1;jettySize=auto;html=1;" edge="1" parent="1" source="xnBmyIyOvbBcUiD-5H-M-16" target="xnBmyIyOvbBcUiD-5H-M-23">
          <mxGeometry relative="1" as="geometry" />
        </mxCell>
        <mxCell id="xnBmyIyOvbBcUiD-5H-M-16" value="User&lt;br&gt;Service" style="shape=hexagon;perimeter=hexagonPerimeter2;whiteSpace=wrap;html=1;fixedSize=1;size=20;rotation=0;" vertex="1" parent="1">
          <mxGeometry x="570" y="90" width="90" height="80" as="geometry" />
        </mxCell>
        <mxCell id="xnBmyIyOvbBcUiD-5H-M-20" style="edgeStyle=orthogonalEdgeStyle;rounded=0;orthogonalLoop=1;jettySize=auto;html=1;entryX=0.375;entryY=1;entryDx=0;entryDy=0;" edge="1" parent="1" source="xnBmyIyOvbBcUiD-5H-M-18" target="xnBmyIyOvbBcUiD-5H-M-16">
          <mxGeometry relative="1" as="geometry" />
        </mxCell>
        <mxCell id="xnBmyIyOvbBcUiD-5H-M-18" value="Fight&lt;br&gt;Service" style="shape=hexagon;perimeter=hexagonPerimeter2;whiteSpace=wrap;html=1;fixedSize=1;size=20;rotation=0;" vertex="1" parent="1">
          <mxGeometry x="384" y="190" width="90" height="80" as="geometry" />
        </mxCell>
        <mxCell id="xnBmyIyOvbBcUiD-5H-M-24" style="edgeStyle=orthogonalEdgeStyle;rounded=0;orthogonalLoop=1;jettySize=auto;html=1;entryX=0;entryY=0.5;entryDx=0;entryDy=0;" edge="1" parent="1" source="xnBmyIyOvbBcUiD-5H-M-21" target="xnBmyIyOvbBcUiD-5H-M-23">
          <mxGeometry relative="1" as="geometry" />
        </mxCell>
        <mxCell id="xnBmyIyOvbBcUiD-5H-M-25" style="edgeStyle=orthogonalEdgeStyle;rounded=0;orthogonalLoop=1;jettySize=auto;html=1;entryX=0.5;entryY=1;entryDx=0;entryDy=0;" edge="1" parent="1" source="xnBmyIyOvbBcUiD-5H-M-21" target="xnBmyIyOvbBcUiD-5H-M-18">
          <mxGeometry relative="1" as="geometry" />
        </mxCell>
        <mxCell id="xnBmyIyOvbBcUiD-5H-M-21" value="Tourney&lt;br&gt;Service" style="shape=hexagon;perimeter=hexagonPerimeter2;whiteSpace=wrap;html=1;fixedSize=1;size=20;rotation=0;" vertex="1" parent="1">
          <mxGeometry x="384" y="290" width="90" height="80" as="geometry" />
        </mxCell>
        <mxCell id="xnBmyIyOvbBcUiD-5H-M-23" value="Rating&lt;br&gt;Service" style="shape=hexagon;perimeter=hexagonPerimeter2;whiteSpace=wrap;html=1;fixedSize=1;size=20;rotation=0;" vertex="1" parent="1">
          <mxGeometry x="570" y="290" width="90" height="80" as="geometry" />
        </mxCell>
        <mxCell id="xnBmyIyOvbBcUiD-5H-M-32" style="edgeStyle=orthogonalEdgeStyle;rounded=0;orthogonalLoop=1;jettySize=auto;html=1;entryX=0.5;entryY=0;entryDx=0;entryDy=0;" edge="1" parent="1" source="xnBmyIyOvbBcUiD-5H-M-27" target="xnBmyIyOvbBcUiD-5H-M-31">
          <mxGeometry relative="1" as="geometry" />
        </mxCell>
        <mxCell id="xnBmyIyOvbBcUiD-5H-M-27" value="" style="shape=cylinder3;whiteSpace=wrap;html=1;boundedLbl=1;backgroundOutline=1;size=9.526315789473642;rotation=90;" vertex="1" parent="1">
          <mxGeometry x="485" y="355" width="30" height="150" as="geometry" />
        </mxCell>
        <mxCell id="xnBmyIyOvbBcUiD-5H-M-28" style="edgeStyle=orthogonalEdgeStyle;rounded=0;orthogonalLoop=1;jettySize=auto;html=1;exitX=1;exitY=0.75;exitDx=0;exitDy=0;entryX=0;entryY=0;entryDx=0;entryDy=42.26315789473682;entryPerimeter=0;" edge="1" parent="1" source="xnBmyIyOvbBcUiD-5H-M-18" target="xnBmyIyOvbBcUiD-5H-M-27">
          <mxGeometry relative="1" as="geometry">
            <mxPoint x="500" y="405" as="targetPoint" />
            <Array as="points">
              <mxPoint x="533" y="246" />
            </Array>
          </mxGeometry>
        </mxCell>
        <mxCell id="xnBmyIyOvbBcUiD-5H-M-30" style="edgeStyle=orthogonalEdgeStyle;rounded=0;orthogonalLoop=1;jettySize=auto;html=1;exitX=1;exitY=0.75;exitDx=0;exitDy=0;entryX=-0.012;entryY=0.58;entryDx=0;entryDy=0;entryPerimeter=0;" edge="1" parent="1" source="xnBmyIyOvbBcUiD-5H-M-21" target="xnBmyIyOvbBcUiD-5H-M-27">
          <mxGeometry relative="1" as="geometry">
            <Array as="points">
              <mxPoint x="488" y="346" />
            </Array>
          </mxGeometry>
        </mxCell>
        <mxCell id="xnBmyIyOvbBcUiD-5H-M-33" style="edgeStyle=orthogonalEdgeStyle;rounded=0;orthogonalLoop=1;jettySize=auto;html=1;entryX=1;entryY=0.5;entryDx=0;entryDy=0;exitX=1;exitY=0.5;exitDx=0;exitDy=0;" edge="1" parent="1" source="xnBmyIyOvbBcUiD-5H-M-31" target="xnBmyIyOvbBcUiD-5H-M-16">
          <mxGeometry relative="1" as="geometry">
            <Array as="points">
              <mxPoint x="700" y="510" />
              <mxPoint x="700" y="130" />
            </Array>
          </mxGeometry>
        </mxCell>
        <mxCell id="xnBmyIyOvbBcUiD-5H-M-31" value="Message Service" style="shape=hexagon;perimeter=hexagonPerimeter2;whiteSpace=wrap;html=1;fixedSize=1;size=20;rotation=0;" vertex="1" parent="1">
          <mxGeometry x="455" y="470" width="90" height="80" as="geometry" />
        </mxCell>
        <mxCell id="xnBmyIyOvbBcUiD-5H-M-35" value="Email" style="ellipse;shape=cloud;whiteSpace=wrap;html=1;" vertex="1" parent="1">
          <mxGeometry x="60" y="470" width="120" height="80" as="geometry" />
        </mxCell>
        <mxCell id="xnBmyIyOvbBcUiD-5H-M-36" style="edgeStyle=orthogonalEdgeStyle;rounded=0;orthogonalLoop=1;jettySize=auto;html=1;entryX=0.875;entryY=0.5;entryDx=0;entryDy=0;entryPerimeter=0;" edge="1" parent="1" source="xnBmyIyOvbBcUiD-5H-M-31" target="xnBmyIyOvbBcUiD-5H-M-35">
          <mxGeometry relative="1" as="geometry" />
        </mxCell>
      </root>
    </mxGraphModel>
  </diagram>
</mxfile>
